{"title":"Unknown 2011 TS AC3  XViD - IMAGiNE","uid":6190896,"size":1485922716,"categoryP":"video","categoryS":"movies","magnet":"?xt=urn:btih:272f19ab9c09d0ed35c9fb7d8acfa72119936a4e&amp;dn=Unknown+2011+TS+AC3++XViD+-+IMAGiNE&amp;tr=udp%3A%2F%2Ftracker.openbittorrent.com%3A80&amp;tr=udp%3A%2F%2Fopen.demonii.com%3A1337&amp;tr=udp%3A%2F%2Ftracker.coppersurfer.tk%3A6969&amp;tr=udp%3A%2F%2Fexodus.desync.com%3A6969","seeders":0,"leechers":1,"uploader":"SAFCukO09","files":103,"time":1298282257,"description":"Ripper ...........:IMAGiNE IMDB Rating.......:8.0/10\n\nVideo Codec.......:XVID Release Date......:21/02/11\n\nAudio Codec.......:AC-3 Theatre Date......:18/02/11\n\nAudio Bitrate.....:128 Runtime...........:1h 47mn\n\nSubtitles.........:yes Language..........:ENGLISH\n\nResolution........:720 x 304 IMDb URL.......... http://www.imdb.com/title/tt1401152/\n\n\n\n\n\nDETAILS:\n\n\n\nVideo\n\nID : 0\n\nFormat : MPEG-4 Visual\n\nFormat profile : Advanced Simple@L5\n\nFormat settings, BVOP : Yes\n\nFormat settings, QPel : No\n\nFormat settings, GMC : No warppoints\n\nFormat settings, Matrix : Default (MPEG)\n\nMuxing mode : Packed bitstream\n\nCodec ID : XVID\n\nCodec ID/Hint : XviD\n\nDuration : 1h 47mn\n\nBit rate : 1 696 Kbps\n\nWidth : 720 pixels\n\nHeight : 304 pixels\n\nDisplay aspect ratio : 2.35:1\n\nFrame rate : 25.000 fps\n\nColor space : YUV\n\nChroma subsampling : 4:2:0\n\nBit depth : 8 bits\n\nScan type : Progressive\n\nBits/(Pixel*Frame) : 0.310\n\nStream size : 1.28 GiB (92%)\n\nWriting library : XviD 1.2.1 (UTC 2008-12-04)\n\n\n\nAudio\n\nID : 1\n\nFormat : AC-3\n\nFormat/Info : Audio Coding 3\n\nMode extension : CM (complete main)\n\nCodec ID : 2000\n\nDuration : 1h 47mn\n\nBit rate mode : Constant\n\nBit rate : 128 Kbps\n\nChannel(s) : 2 channels\n\nChannel positions : Front: L R\n\nSampling rate : 48.0 KHz\n\nBit depth : 16 bits\n\nStream size : 98.7 MiB (7%)\n\nAlignment : Aligned on interleaves\n\nInterleave, duration : 40 ms (1.00 video frame)\n\nInterleave, preload duration : 512 ms\n\n\n\n\n\nSOURCES:\n\n\n\nVIDEO: elektri4ka...Thanks\n\nAUDIO: Thanks matey\n\n\n\nNOTES:\n\n\n\nIMAGiNE bringing you another release.......... Unknown 2011\n\n\n\n\n\n\n\nHere we are with a nice encode of this one for you all. Now for the video we just made a script\n\ncontaining white balance,resize, rgb eq, sharpness, chroma, brightness, contrast ect. With the audio\n\nit was just a matter of syncing it to the video.\n\nFYI English hardcode subs for non english speaking parts...\n\nAnyway enjoy folks ....\n\n\n\n\n\n\n\nSCREENS:","torrent":{"xt":"urn:btih:272f19ab9c09d0ed35c9fb7d8acfa72119936a4e","amp;dn":"Unknown+2011+TS+AC3++XViD+-+IMAGiNE","amp;tr":["udp%3A%2F%2Ftracker.openbittorrent.com%3A80","udp%3A%2F%2Fopen.demonii.com%3A1337","udp%3A%2F%2Ftracker.coppersurfer.tk%3A6969","udp%3A%2F%2Fexodus.desync.com%3A6969"],"infoHash":"272f19ab9c09d0ed35c9fb7d8acfa72119936a4e","infoHashBuffer":{"type":"Buffer","data":[39,47,25,171,156,9,208,237,53,201,251,125,138,207,167,33,25,147,106,78]},"announce":[],"urlList":[]}}